<svg id="setBut" xmlns="http://www.w3.org/2000/svg" viewBox="0 0 75.35 75.35"><defs><style>.cls-1{fill:#ffce44;}.cls-2{fill:#fff;}</style></defs><title>detBut</title><g id="setBut-2" data-name="setBut"><circle class="cls-1" cx="37.68" cy="37.68" r="37.68" transform="translate(-0.05 75.3) rotate(-89.93)"/><path class="cls-2" d="M55.09,39.89a3,3,0,0,1,0-4.4l3.64-3.37a21,21,0,0,0-2.06-5l-5,.18a3,3,0,0,1-3.11-3.11l.19-5a21.8,21.8,0,0,0-5-2.08l-3.38,3.65a3,3,0,0,1-4.4,0l-3.38-3.65a21.11,21.11,0,0,0-5,2.09l.19,5a3,3,0,0,1-3.11,3.11l-5-.19a19.74,19.74,0,0,0-2.08,5l3.63,3.37a3,3,0,0,1,0,4.4l-3.64,3.37a20.63,20.63,0,0,0,2.08,5l5-.19a3,3,0,0,1,3.11,3.11l-.19,5a19.76,19.76,0,0,0,5,2.08L36,54.59a3,3,0,0,1,4.4,0l3.37,3.64a21.75,21.75,0,0,0,5-2.08l-.19-5a3,3,0,0,1,3.11-3.11l5,.19a19.74,19.74,0,0,0,2.08-5Zm-10.25.55A7.21,7.21,0,1,1,40.94,31,7.21,7.21,0,0,1,44.84,40.44Z"/></g></svg>